<?xml version="1.0" encoding="utf-8"?>
<!-- Generator: Adobe Illustrator 16.0.0, SVG Export Plug-In . SVG Version: 6.00 Build 0)  -->
<!DOCTYPE svg PUBLIC "-//W3C//DTD SVG 1.1//EN" "http://www.w3.org/Graphics/SVG/1.1/DTD/svg11.dtd">
<svg version="1.1" xmlns="http://www.w3.org/2000/svg" xmlns:xlink="http://www.w3.org/1999/xlink" x="0px" y="0px"
	 width="595.28px" height="740.93px" viewBox="0 0 595.28 740.93" enable-background="new 0 0 595.28 740.93" xml:space="preserve">
<g id="Layer_4">
</g>
<g id="Layer_2">
	<rect x="94" y="340.188" fill="#FFFFFF" stroke="#000000" stroke-miterlimit="10" width="422" height="354"/>
</g>
<g id="Layer_1">
	<g>
		<path fill="#FFFFFF" d="M581.419,204.737h7.193L394.941,0v8.3l186.478,195.885V204.737z"/>
		<path fill="#FFFFFF" d="M448.063,204.737c-29.479-1.179-52.85-25.279-53.121-54.781V0H59.614
			C30.493,0.604,7.29,24.548,7.601,53.674v227.979h581.012v-77.468h-140.55V204.737z"/>
	</g>
	<path fill="#FFFFFF" d="M7.601,298.253v390.108c0,28.774,23.24,52.568,52.014,52.568h476.983c28.774,0,52.015-23.794,52.015-52.568
		V298.253H7.601z M217.871,579.353c-3.319,2.767-7.746,3.873-10.514,1.106l-59.761-60.314l-7.193-6.087l66.401-66.401
		c2.213-2.767,7.193-2.213,10.514,1.106c3.319,3.32,3.873,8.301,1.106,11.067l-54.228,54.228l55.334,55.335
		C221.745,571.605,221.191,576.032,217.871,579.353z M352.334,394.535l-95.729,245.132c-1.66,3.874-6.64,6.087-11.066,4.427
		c-4.241-1.74-6.269-6.588-4.529-10.829c0.033-0.08,0.067-0.159,0.103-0.237l95.729-244.579c1.659-3.873,6.086-6.087,10.513-4.427
		s6.641,6.64,4.98,11.067V394.535z M389.408,580.459c-2.214,2.767-7.193,2.214-10.514-1.106s-3.873-8.3-1.106-11.067l55.888-54.228
		l-55.335-55.334c-2.213-2.214-1.659-6.641,1.66-9.961c3.32-2.767,7.747-3.873,10.514-1.106l59.762,60.314l5.533,6.087
		L389.408,580.459z"/>
	
		<text transform="matrix(1 0 0 1 53.8281 135.9834)" fill="#FCD552" stroke="#FCD552" stroke-width="3" stroke-miterlimit="10" font-family="'NotoSansCJKkr-Bold-KSCpc-EUC-H'" font-size="72" letter-spacing="3">React</text>
	
		<text transform="matrix(1 0 0 1 56.8281 209.1875)" fill="#FCD552" stroke="#FCD552" stroke-miterlimit="10" font-family="'NotoSansCJKkr-Black-KSCpc-EUC-H'" font-size="48" letter-spacing="2">studying</text>
</g>
<g id="Layer_3">
	<g>
		<g>
			<path fill="#FCD552" stroke="#FCD552" stroke-width="0.5" stroke-miterlimit="10" d="M473.119,513.542
				c0-22.979-28.777-44.757-72.898-58.262c10.182-44.97,5.656-80.747-14.283-92.202c-4.596-2.687-9.969-3.959-15.838-3.959v15.768
				c3.252,0,5.869,0.636,8.061,1.838c9.617,5.516,13.789,26.516,10.535,53.525c-0.777,6.646-2.051,13.646-3.605,20.788
				c-13.859-3.395-28.99-6.011-44.898-7.708c-9.545-13.08-19.445-24.959-29.414-35.353c23.051-21.425,44.686-33.162,59.393-33.162
				v-15.768c-19.443,0-44.898,13.858-70.636,37.899c-25.737-23.899-51.192-37.616-70.636-37.616v15.768
				c14.636,0,36.343,11.667,59.394,32.949c-9.899,10.394-19.798,22.202-29.202,35.282c-15.979,1.697-31.111,4.313-44.97,7.778
				c-1.626-7.07-2.828-13.93-3.677-20.505c-3.323-27.01,0.778-48.01,10.323-53.596c2.122-1.272,4.879-1.839,8.131-1.839v-15.768
				c-5.939,0-11.313,1.273-15.979,3.96c-19.869,11.454-24.323,47.161-14.071,91.989c-43.979,13.576-72.616,35.283-72.616,58.191
				c0,22.98,28.777,44.758,72.898,58.263c-10.182,44.97-5.656,80.747,14.283,92.202c4.596,2.687,9.97,3.959,15.909,3.959
				c19.444,0,44.899-13.858,70.637-37.898c25.736,23.898,51.191,37.616,70.637,37.616c5.939,0,11.313-1.273,15.979-3.96
				c19.869-11.454,24.324-47.161,14.07-91.989C444.484,558.229,473.119,536.451,473.119,513.542L473.119,513.542z M381.059,466.381
				c-2.615,9.121-5.867,18.525-9.545,27.93c-2.898-5.657-5.939-11.313-9.262-16.97c-3.254-5.657-6.717-11.172-10.182-16.546
				C362.109,462.28,371.797,464.118,381.059,466.381z M348.676,541.684c-5.516,9.546-11.172,18.596-17.041,27.011
				c-10.535,0.919-21.211,1.414-31.959,1.414c-10.677,0-21.354-0.495-31.818-1.344c-5.869-8.414-11.596-17.394-17.111-26.868
				c-5.374-9.263-10.252-18.667-14.707-28.142c4.384-9.475,9.333-18.95,14.636-28.212c5.515-9.546,11.171-18.597,17.04-27.011
				c10.536-0.919,21.212-1.414,31.96-1.414c10.678,0,21.354,0.495,31.818,1.344c5.869,8.414,11.596,17.394,17.111,26.868
				c5.373,9.263,10.252,18.667,14.707,28.142C358.857,522.946,353.979,532.421,348.676,541.684z M371.514,532.492
				c3.818,9.475,7.07,18.949,9.758,28.141c-9.262,2.263-19.02,4.172-29.131,5.657c3.465-5.444,6.93-11.03,10.182-16.758
				C365.574,543.876,368.615,538.148,371.514,532.492L371.514,532.492z M299.816,607.937c-6.575-6.788-13.151-14.354-19.656-22.627
				c6.363,0.283,12.869,0.495,19.445,0.495c6.646,0,13.223-0.142,19.656-0.495C312.898,593.583,306.322,601.148,299.816,607.937z
				 M247.211,566.29c-10.04-1.485-19.727-3.323-28.99-5.586c2.616-9.121,5.869-18.525,9.545-27.93
				c2.899,5.657,5.939,11.313,9.263,16.97C240.353,555.401,243.747,560.916,247.211,566.29z M299.463,419.148
				c6.576,6.788,13.152,14.354,19.658,22.627c-6.365-0.283-12.869-0.495-19.445-0.495c-6.646,0-13.223,0.142-19.657,0.495
				C286.383,433.502,292.958,425.937,299.463,419.148z M247.14,460.795c-3.464,5.444-6.929,11.03-10.182,16.758
				c-3.252,5.656-6.293,11.313-9.192,16.97c-3.818-9.475-7.07-18.949-9.757-28.142C227.272,464.189,237.029,462.28,247.14,460.795
				L247.14,460.795z M183.151,549.32c-25.03-10.677-41.222-24.677-41.222-35.778c0-11.101,16.192-25.171,41.222-35.777
				c6.081-2.616,12.727-4.949,19.585-7.142c4.03,13.858,9.333,28.283,15.909,43.061c-6.505,14.707-11.737,29.061-15.697,42.849
				C195.949,554.341,189.302,551.937,183.151,549.32z M221.191,650.36c-9.616-5.516-13.788-26.516-10.535-53.525
				c0.778-6.646,2.05-13.646,3.606-20.788c13.858,3.395,28.99,6.011,44.899,7.707c9.545,13.081,19.444,24.96,29.414,35.354
				c-23.051,21.425-44.687,33.162-59.394,33.162C225.999,652.198,223.312,651.563,221.191,650.36L221.191,650.36z M388.908,596.481
				c3.322,27.01-0.777,48.01-10.324,53.596c-2.121,1.272-4.879,1.839-8.131,1.839c-14.637,0-36.344-11.667-59.393-32.949
				c9.898-10.395,19.797-22.202,29.201-35.283c15.98-1.697,31.111-4.313,44.969-7.777
				C386.857,583.047,388.131,589.906,388.908,596.481z M416.131,549.32c-6.082,2.616-12.729,4.949-19.586,7.142
				c-4.031-13.858-9.334-28.283-15.91-43.061c6.506-14.707,11.738-29.061,15.697-42.849c7,2.191,13.646,4.596,19.869,7.212
				c25.029,10.677,41.221,24.677,41.221,35.777C457.352,524.644,441.16,538.714,416.131,549.32L416.131,549.32z"/>
			<circle fill="#FCD552" stroke="#FCD552" stroke-width="0.5" stroke-miterlimit="10" cx="299.605" cy="513.542" r="32.313"/>
			<path fill="#FCD552" stroke="#FCD552" stroke-width="0.5" stroke-miterlimit="10" d="M370.029,359.119"/>
		</g>
	</g>
</g>
</svg>
